<svg width="21" height="21" viewBox="0 0 21 21" fill="none" xmlns="http://www.w3.org/2000/svg">
<path d="M18.5 15.1991L17.33 14.0291H2.5V2.02905H18.5V15.1991ZM18.5 0.0290527H2.5C1.4 0.0290527 0.5 0.929053 0.5 2.02905V14.0291C0.5 15.1291 1.4 16.0291 2.5 16.0291H16.5L20.5 20.0291V2.02905C20.5 0.929053 19.6 0.0290527 18.5 0.0290527Z" fill="#4B465C"/>
<path d="M18.5 15.1991L17.33 14.0291H2.5V2.02905H18.5V15.1991ZM18.5 0.0290527H2.5C1.4 0.0290527 0.5 0.929053 0.5 2.02905V14.0291C0.5 15.1291 1.4 16.0291 2.5 16.0291H16.5L20.5 20.0291V2.02905C20.5 0.929053 19.6 0.0290527 18.5 0.0290527Z" fill="white" fill-opacity="0.2"/>
</svg>
