<svg width="24" height="25" viewBox="0 0 24 25" fill="none" xmlns="http://www.w3.org/2000/svg">
<path d="M3 19.0291H5V15.0291C5 14.1957 5.29167 13.4874 5.875 12.9041C6.45833 12.3207 7.16667 12.0291 8 12.0291H17.2L13.6 15.6291L15 17.0291L21 11.0291L15 5.02905L13.6 6.42905L17.2 10.0291H8C6.61667 10.0291 5.43767 10.5164 4.463 11.4911C3.48767 12.4664 3 13.6457 3 15.0291V19.0291Z" fill="#4B465C"/>
<path d="M3 19.0291H5V15.0291C5 14.1957 5.29167 13.4874 5.875 12.9041C6.45833 12.3207 7.16667 12.0291 8 12.0291H17.2L13.6 15.6291L15 17.0291L21 11.0291L15 5.02905L13.6 6.42905L17.2 10.0291H8C6.61667 10.0291 5.43767 10.5164 4.463 11.4911C3.48767 12.4664 3 13.6457 3 15.0291V19.0291Z" fill="white" fill-opacity="0.2"/>
</svg>
