<svg width="24" height="25" viewBox="0 0 24 25" fill="none" xmlns="http://www.w3.org/2000/svg">
<g clip-path="url(#clip0_1_7431)">
<mask id="path-1-inside-1_1_7431" fill="white">
<path d="M9 21.0291H18C18.83 21.0291 19.54 20.5291 19.84 19.8091L22.86 12.7591C22.95 12.5291 23 12.2891 23 12.0291V10.0291C23 8.92905 22.1 8.02905 21 8.02905H14.69L15.64 3.45905L15.67 3.13905C15.67 2.72905 15.5 2.34905 15.23 2.07905L14.17 1.02905L7.58 7.61905C7.22 7.97905 7 8.47905 7 9.02905V19.0291C7 20.1291 7.9 21.0291 9 21.0291ZM9 9.02905L13.34 4.68905L12 10.0291H21V12.0291L18 19.0291H9V9.02905ZM1 9.02905H5V21.0291H1V9.02905Z"/>
</mask>
<path d="M9 21.0291H18C18.83 21.0291 19.54 20.5291 19.84 19.8091L22.86 12.7591C22.95 12.5291 23 12.2891 23 12.0291V10.0291C23 8.92905 22.1 8.02905 21 8.02905H14.69L15.64 3.45905L15.67 3.13905C15.67 2.72905 15.5 2.34905 15.23 2.07905L14.17 1.02905L7.58 7.61905C7.22 7.97905 7 8.47905 7 9.02905V19.0291C7 20.1291 7.9 21.0291 9 21.0291ZM9 9.02905L13.34 4.68905L12 10.0291H21V12.0291L18 19.0291H9V9.02905ZM1 9.02905H5V21.0291H1V9.02905Z" fill="#4B465C"/>
<path d="M9 21.0291H18C18.83 21.0291 19.54 20.5291 19.84 19.8091L22.86 12.7591C22.95 12.5291 23 12.2891 23 12.0291V10.0291C23 8.92905 22.1 8.02905 21 8.02905H14.69L15.64 3.45905L15.67 3.13905C15.67 2.72905 15.5 2.34905 15.23 2.07905L14.17 1.02905L7.58 7.61905C7.22 7.97905 7 8.47905 7 9.02905V19.0291C7 20.1291 7.9 21.0291 9 21.0291ZM9 9.02905L13.34 4.68905L12 10.0291H21V12.0291L18 19.0291H9V9.02905ZM1 9.02905H5V21.0291H1V9.02905Z" fill="white" fill-opacity="0.2"/>
<path d="M19.84 19.8091L11.5671 16.2652L11.5495 16.3063L11.5323 16.3475L19.84 19.8091ZM22.86 12.7591L31.1329 16.3029L31.1891 16.1716L31.2412 16.0386L22.86 12.7591ZM14.69 8.02905L5.87838 6.19731L3.6267 17.0291H14.69V8.02905ZM15.64 3.45905L24.4516 5.29079L24.5538 4.79911L24.6007 4.29911L15.64 3.45905ZM15.67 3.13905L24.6307 3.97911L24.67 3.56V3.13905H15.67ZM15.23 2.07905L21.594 -4.28491L21.5789 -4.29999L21.5637 -4.315L15.23 2.07905ZM14.17 1.02905L20.5037 -5.365L14.1399 -11.6688L7.80604 -5.33491L14.17 1.02905ZM9 9.02905L2.63604 2.66509L0 5.30113V9.02905H9ZM13.34 4.68905L22.0694 6.87957L29.9914 -24.6902L6.97604 -1.67491L13.34 4.68905ZM12 10.0291L3.27064 7.83854L0.462538 19.0291H12V10.0291ZM21 10.0291H30V1.02905H21V10.0291ZM21 12.0291L29.2723 15.5743L30 13.8764V12.0291H21ZM18 19.0291V28.0291H23.9346L26.2723 22.5743L18 19.0291ZM9 19.0291H0V28.0291H9V19.0291ZM1 9.02905V0.0290527H-8V9.02905H1ZM5 9.02905H14V0.0290527H5V9.02905ZM5 21.0291V30.0291H14V21.0291H5ZM1 21.0291H-8V30.0291H1V21.0291ZM9 30.0291H18V12.0291H9V30.0291ZM18 30.0291C22.541 30.0291 26.4804 27.2721 28.1477 23.2706L11.5323 16.3475C12.5996 13.786 15.119 12.0291 18 12.0291V30.0291ZM28.1129 23.3529L31.1329 16.3029L14.5871 9.21519L11.5671 16.2652L28.1129 23.3529ZM31.2412 16.0386C31.7087 14.8439 32 13.4944 32 12.0291H14C14 11.0837 14.1913 10.2142 14.4788 9.47946L31.2412 16.0386ZM32 12.0291V10.0291H14V12.0291H32ZM32 10.0291C32 3.95849 27.0706 -0.970947 21 -0.970947V17.0291C17.1294 17.0291 14 13.8996 14 10.0291H32ZM21 -0.970947H14.69V17.0291H21V-0.970947ZM23.5016 9.86079L24.4516 5.29079L6.82838 1.62731L5.87838 6.19731L23.5016 9.86079ZM24.6007 4.29911L24.6307 3.97911L6.70929 2.29899L6.67929 2.61899L24.6007 4.29911ZM24.67 3.13905C24.67 0.23926 23.4776 -2.40122 21.594 -4.28491L8.86604 8.44301C7.52235 7.09933 6.67 5.21885 6.67 3.13905H24.67ZM21.5637 -4.315L20.5037 -5.365L7.83627 7.4231L8.89627 8.4731L21.5637 -4.315ZM7.80604 -5.33491L1.21604 1.25509L13.944 13.983L20.534 7.39301L7.80604 -5.33491ZM1.21604 1.25509C-0.795343 3.26647 -2 6.04105 -2 9.02905H16C16 10.9171 15.2353 12.6916 13.944 13.983L1.21604 1.25509ZM-2 9.02905V19.0291H16V9.02905H-2ZM-2 19.0291C-2 25.0996 2.92944 30.0291 9 30.0291V12.0291C12.8706 12.0291 16 15.1585 16 19.0291H-2ZM15.364 15.393L19.704 11.053L6.97604 -1.67491L2.63604 2.66509L15.364 15.393ZM4.61064 2.49854L3.27064 7.83854L20.7294 12.2196L22.0694 6.87957L4.61064 2.49854ZM12 19.0291H21V1.02905H12V19.0291ZM12 10.0291V12.0291H30V10.0291H12ZM12.7277 8.48378L9.72769 15.4838L26.2723 22.5743L29.2723 15.5743L12.7277 8.48378ZM18 10.0291H9V28.0291H18V10.0291ZM18 19.0291V9.02905H0V19.0291H18ZM1 18.0291H5V0.0290527H1V18.0291ZM-4 9.02905V21.0291H14V9.02905H-4ZM5 12.0291H1V30.0291H5V12.0291ZM10 21.0291V9.02905H-8V21.0291H10Z" fill="#4B465C" mask="url(#path-1-inside-1_1_7431)"/>
<path d="M19.84 19.8091L11.5671 16.2652L11.5495 16.3063L11.5323 16.3475L19.84 19.8091ZM22.86 12.7591L31.1329 16.3029L31.1891 16.1716L31.2412 16.0386L22.86 12.7591ZM14.69 8.02905L5.87838 6.19731L3.6267 17.0291H14.69V8.02905ZM15.64 3.45905L24.4516 5.29079L24.5538 4.79911L24.6007 4.29911L15.64 3.45905ZM15.67 3.13905L24.6307 3.97911L24.67 3.56V3.13905H15.67ZM15.23 2.07905L21.594 -4.28491L21.5789 -4.29999L21.5637 -4.315L15.23 2.07905ZM14.17 1.02905L20.5037 -5.365L14.1399 -11.6688L7.80604 -5.33491L14.17 1.02905ZM9 9.02905L2.63604 2.66509L0 5.30113V9.02905H9ZM13.34 4.68905L22.0694 6.87957L29.9914 -24.6902L6.97604 -1.67491L13.34 4.68905ZM12 10.0291L3.27064 7.83854L0.462538 19.0291H12V10.0291ZM21 10.0291H30V1.02905H21V10.0291ZM21 12.0291L29.2723 15.5743L30 13.8764V12.0291H21ZM18 19.0291V28.0291H23.9346L26.2723 22.5743L18 19.0291ZM9 19.0291H0V28.0291H9V19.0291ZM1 9.02905V0.0290527H-8V9.02905H1ZM5 9.02905H14V0.0290527H5V9.02905ZM5 21.0291V30.0291H14V21.0291H5ZM1 21.0291H-8V30.0291H1V21.0291ZM9 30.0291H18V12.0291H9V30.0291ZM18 30.0291C22.541 30.0291 26.4804 27.2721 28.1477 23.2706L11.5323 16.3475C12.5996 13.786 15.119 12.0291 18 12.0291V30.0291ZM28.1129 23.3529L31.1329 16.3029L14.5871 9.21519L11.5671 16.2652L28.1129 23.3529ZM31.2412 16.0386C31.7087 14.8439 32 13.4944 32 12.0291H14C14 11.0837 14.1913 10.2142 14.4788 9.47946L31.2412 16.0386ZM32 12.0291V10.0291H14V12.0291H32ZM32 10.0291C32 3.95849 27.0706 -0.970947 21 -0.970947V17.0291C17.1294 17.0291 14 13.8996 14 10.0291H32ZM21 -0.970947H14.69V17.0291H21V-0.970947ZM23.5016 9.86079L24.4516 5.29079L6.82838 1.62731L5.87838 6.19731L23.5016 9.86079ZM24.6007 4.29911L24.6307 3.97911L6.70929 2.29899L6.67929 2.61899L24.6007 4.29911ZM24.67 3.13905C24.67 0.23926 23.4776 -2.40122 21.594 -4.28491L8.86604 8.44301C7.52235 7.09933 6.67 5.21885 6.67 3.13905H24.67ZM21.5637 -4.315L20.5037 -5.365L7.83627 7.4231L8.89627 8.4731L21.5637 -4.315ZM7.80604 -5.33491L1.21604 1.25509L13.944 13.983L20.534 7.39301L7.80604 -5.33491ZM1.21604 1.25509C-0.795343 3.26647 -2 6.04105 -2 9.02905H16C16 10.9171 15.2353 12.6916 13.944 13.983L1.21604 1.25509ZM-2 9.02905V19.0291H16V9.02905H-2ZM-2 19.0291C-2 25.0996 2.92944 30.0291 9 30.0291V12.0291C12.8706 12.0291 16 15.1585 16 19.0291H-2ZM15.364 15.393L19.704 11.053L6.97604 -1.67491L2.63604 2.66509L15.364 15.393ZM4.61064 2.49854L3.27064 7.83854L20.7294 12.2196L22.0694 6.87957L4.61064 2.49854ZM12 19.0291H21V1.02905H12V19.0291ZM12 10.0291V12.0291H30V10.0291H12ZM12.7277 8.48378L9.72769 15.4838L26.2723 22.5743L29.2723 15.5743L12.7277 8.48378ZM18 10.0291H9V28.0291H18V10.0291ZM18 19.0291V9.02905H0V19.0291H18ZM1 18.0291H5V0.0290527H1V18.0291ZM-4 9.02905V21.0291H14V9.02905H-4ZM5 12.0291H1V30.0291H5V12.0291ZM10 21.0291V9.02905H-8V21.0291H10Z" fill="white" fill-opacity="0.2" mask="url(#path-1-inside-1_1_7431)"/>
</g>
<defs>
<clipPath id="clip0_1_7431">
<rect width="24" height="24" fill="white" transform="translate(0 0.0290527)"/>
</clipPath>
</defs>
</svg>
